<svg xmlns="http://www.w3.org/2000/svg" width="64" height="64" class="lds-progress" preserveAspectRatio="xMidYMid" viewBox="0 0 100 100" style="background:0 0"><defs><clipPath id="lds-progress-cpid-8c782c0adc8f3" width="100" height="100" x="0" y="0" ng-attr-id="{{config.cpid}}"><rect width="79.989" height="100" x="0" y="0"><animate attributeName="width" begin="0s" calcMode="linear" dur="1.5" keyTimes="0;0.5;1" repeatCount="indefinite" values="0;100;100"/><animate attributeName="x" begin="0s" calcMode="linear" dur="1.5" keyTimes="0;0.5;1" repeatCount="indefinite" values="0;0;100"/></rect></clipPath></defs><path fill="none" stroke="#0055a5" stroke-width="2.793" d="M82,63H18c-7.2,0-13-5.8-13-13v0c0-7.2,5.8-13,13-13h64c7.2,0,13,5.8,13,13v0C95,57.2,89.2,63,82,63z" ng-attr-stroke="{{config.c1}}"/><path fill="#1f8ceb" d="M81.3,58.7H18.7c-4.8,0-8.7-3.9-8.7-8.7v0c0-4.8,3.9-8.7,8.7-8.7h62.7c4.8,0,8.7,3.9,8.7,8.7v0C90,54.8,86.1,58.7,81.3,58.7z" clip-path="url(#lds-progress-cpid-8c782c0adc8f3)" ng-attr-clip-path="url(#{{config.cpid}})" ng-attr-fill="{{config.c2}}"/></svg>